<svg width="67" height="115" viewBox="0 0 67 115" fill="none" xmlns="http://www.w3.org/2000/svg">
<g id="Group 1410076182">
<path id="Polygon 15" d="M1.59801 2.33313L3.61761 4.28153L1.58698 6.21843L1.59801 2.33313Z" fill="#C4C4C4" stroke="#C4C4C4"/>
<path id="Polygon 15_2" d="M1.59801 13.045L3.61761 14.9934L1.58698 16.9303L1.59801 13.045Z" fill="#C4C4C4" stroke="#C4C4C4"/>
<path id="Polygon 16" d="M14.128 13.045L16.1476 14.9934L14.117 16.9303L14.128 13.045Z" fill="#C4C4C4" stroke="#C4C4C4"/>
<path id="Polygon 15_3" d="M1.59801 23.757L3.61761 25.7054L1.58698 27.6423L1.59801 23.757Z" fill="#C4C4C4" stroke="#C4C4C4"/>
<path id="Polygon 16_2" d="M14.128 23.757L16.1476 25.7054L14.117 27.6423L14.128 23.757Z" fill="#C4C4C4" stroke="#C4C4C4"/>
<path id="Polygon 17" d="M26.6578 23.757L28.6774 25.7054L26.6468 27.6423L26.6578 23.757Z" fill="#C4C4C4" stroke="#C4C4C4"/>
<path id="Polygon 15_4" d="M1.59801 34.4689L3.61761 36.4173L1.58698 38.3542L1.59801 34.4689Z" fill="#C4C4C4" stroke="#C4C4C4"/>
<path id="Polygon 16_3" d="M14.128 34.4689L16.1476 36.4173L14.117 38.3542L14.128 34.4689Z" fill="#C4C4C4" stroke="#C4C4C4"/>
<path id="Polygon 17_2" d="M26.6578 34.4689L28.6774 36.4173L26.6468 38.3542L26.6578 34.4689Z" fill="#C4C4C4" stroke="#C4C4C4"/>
<path id="Polygon 18" d="M39.1883 34.4689L41.2079 36.4173L39.1773 38.3542L39.1883 34.4689Z" fill="#C4C4C4" stroke="#C4C4C4"/>
<path id="Polygon 17_3" d="M1.59801 45.1818L3.61761 47.1302L1.58698 49.0671L1.59801 45.1818Z" fill="#C4C4C4" stroke="#C4C4C4"/>
<path id="Polygon 18_2" d="M14.128 45.1818L16.1476 47.1302L14.117 49.0671L14.128 45.1818Z" fill="#C4C4C4" stroke="#C4C4C4"/>
<path id="Polygon 19" d="M26.6578 45.1818L28.6774 47.1302L26.6468 49.0671L26.6578 45.1818Z" fill="#C4C4C4" stroke="#C4C4C4"/>
<path id="Polygon 20" d="M39.1883 45.1818L41.2079 47.1302L39.1773 49.0671L39.1883 45.1818Z" fill="#C4C4C4" stroke="#C4C4C4"/>
<path id="Polygon 21" d="M51.7174 45.1818L53.737 47.1302L51.7064 49.0671L51.7174 45.1818Z" fill="#C4C4C4" stroke="#C4C4C4"/>
<path id="Polygon 21_2" d="M1.59801 55.8937L3.61761 57.8421L1.58698 59.779L1.59801 55.8937Z" fill="#C4C4C4" stroke="#C4C4C4"/>
<path id="Polygon 22" d="M14.128 55.8937L16.1476 57.8421L14.117 59.779L14.128 55.8937Z" fill="#C4C4C4" stroke="#C4C4C4"/>
<path id="Polygon 23" d="M26.6578 55.8937L28.6774 57.8421L26.6468 59.779L26.6578 55.8937Z" fill="#C4C4C4" stroke="#C4C4C4"/>
<path id="Polygon 24" d="M39.1883 55.8937L41.2079 57.8421L39.1773 59.779L39.1883 55.8937Z" fill="#C4C4C4" stroke="#C4C4C4"/>
<path id="Polygon 25" d="M51.7174 55.8937L53.737 57.8421L51.7064 59.779L51.7174 55.8937Z" fill="#C4C4C4" stroke="#C4C4C4"/>
<path id="Polygon 26" d="M64.2479 55.8937L66.2675 57.8421L64.2369 59.779L64.2479 55.8937Z" fill="#C4C4C4" stroke="#C4C4C4"/>
<path id="Polygon 21_3" d="M1.59801 66.6056L3.61761 68.554L1.58698 70.4909L1.59801 66.6056Z" fill="#C4C4C4" stroke="#C4C4C4"/>
<path id="Polygon 22_2" d="M14.128 66.6056L16.1476 68.554L14.117 70.4909L14.128 66.6056Z" fill="#C4C4C4" stroke="#C4C4C4"/>
<path id="Polygon 23_2" d="M26.6578 66.6056L28.6774 68.554L26.6468 70.4909L26.6578 66.6056Z" fill="#C4C4C4" stroke="#C4C4C4"/>
<path id="Polygon 24_2" d="M39.1883 66.6056L41.2079 68.554L39.1773 70.4909L39.1883 66.6056Z" fill="#C4C4C4" stroke="#C4C4C4"/>
<path id="Polygon 25_2" d="M51.7174 66.6056L53.737 68.554L51.7064 70.4909L51.7174 66.6056Z" fill="#C4C4C4" stroke="#C4C4C4"/>
<path id="Polygon 21_4" d="M1.59801 77.3165L3.61761 79.2649L1.58698 81.2018L1.59801 77.3165Z" fill="#C4C4C4" stroke="#C4C4C4"/>
<path id="Polygon 22_3" d="M14.128 77.3165L16.1476 79.2649L14.117 81.2018L14.128 77.3165Z" fill="#C4C4C4" stroke="#C4C4C4"/>
<path id="Polygon 23_3" d="M26.6578 77.3165L28.6774 79.2649L26.6468 81.2018L26.6578 77.3165Z" fill="#C4C4C4" stroke="#C4C4C4"/>
<path id="Polygon 24_3" d="M39.1883 77.3165L41.2079 79.2649L39.1773 81.2018L39.1883 77.3165Z" fill="#C4C4C4" stroke="#C4C4C4"/>
<path id="Polygon 21_5" d="M1.59801 88.0284L3.61761 89.9768L1.58698 91.9137L1.59801 88.0284Z" fill="#C4C4C4" stroke="#C4C4C4"/>
<path id="Polygon 24_4" d="M14.128 88.0284L16.1476 89.9768L14.117 91.9137L14.128 88.0284Z" fill="#C4C4C4" stroke="#C4C4C4"/>
<path id="Polygon 25_3" d="M26.6578 88.0284L28.6774 89.9768L26.6468 91.9137L26.6578 88.0284Z" fill="#C4C4C4" stroke="#C4C4C4"/>
<path id="Polygon 21_6" d="M1.59801 98.7423L3.61761 100.691L1.58698 102.628L1.59801 98.7423Z" fill="#C4C4C4" stroke="#C4C4C4"/>
<path id="Polygon 24_5" d="M14.128 98.7423L16.1476 100.691L14.117 102.628L14.128 98.7423Z" fill="#C4C4C4" stroke="#C4C4C4"/>
<path id="Polygon 21_7" d="M1.59801 109.452L3.61761 111.401L1.58698 113.338L1.59801 109.452Z" fill="#C4C4C4" stroke="#C4C4C4"/>
</g>
</svg>
