<svg width="48" height="82" viewBox="0 0 48 82" fill="none" xmlns="http://www.w3.org/2000/svg">
<g id="Group 1410076179">
<path id="Polygon 15" d="M0.286635 1.52174L1.39052 2.58671L0.280603 3.64539L0.286635 1.52174Z" fill="black" stroke="black"/>
<path id="Polygon 15_2" d="M0.286635 9.20484L1.39052 10.2698L0.280603 11.3285L0.286635 9.20484Z" fill="black" stroke="black"/>
<path id="Polygon 16" d="M9.27394 9.20484L10.3778 10.2698L9.26791 11.3285L9.27394 9.20484Z" fill="black" stroke="black"/>
<path id="Polygon 15_3" d="M0.286635 16.8879L1.39052 17.9529L0.280603 19.0116L0.286635 16.8879Z" fill="black" stroke="black"/>
<path id="Polygon 16_2" d="M9.27394 16.8879L10.3778 17.9529L9.26791 19.0116L9.27394 16.8879Z" fill="black" stroke="black"/>
<path id="Polygon 17" d="M18.2608 16.8879L19.3646 17.9529L18.2547 19.0116L18.2608 16.8879Z" fill="black" stroke="black"/>
<path id="Polygon 15_4" d="M0.286635 24.5711L1.39052 25.636L0.280603 26.6947L0.286635 24.5711Z" fill="black" stroke="black"/>
<path id="Polygon 16_3" d="M9.27394 24.5711L10.3778 25.636L9.26791 26.6947L9.27394 24.5711Z" fill="black" stroke="black"/>
<path id="Polygon 17_2" d="M18.2608 24.5711L19.3646 25.636L18.2547 26.6947L18.2608 24.5711Z" fill="black" stroke="black"/>
<path id="Polygon 18" d="M27.2478 24.5711L28.3517 25.636L27.2418 26.6947L27.2478 24.5711Z" fill="black" stroke="black"/>
<path id="Polygon 17_3" d="M0.286635 32.2542L1.39052 33.3191L0.280603 34.3778L0.286635 32.2542Z" fill="black" stroke="black"/>
<path id="Polygon 18_2" d="M9.27394 32.2542L10.3778 33.3191L9.26791 34.3778L9.27394 32.2542Z" fill="black" stroke="black"/>
<path id="Polygon 19" d="M18.2608 32.2542L19.3646 33.3191L18.2547 34.3778L18.2608 32.2542Z" fill="black" stroke="black"/>
<path id="Polygon 20" d="M27.2478 32.2542L28.3517 33.3191L27.2418 34.3778L27.2478 32.2542Z" fill="black" stroke="black"/>
<path id="Polygon 21" d="M36.2351 32.2542L37.339 33.3191L36.2291 34.3778L36.2351 32.2542Z" fill="black" stroke="black"/>
<path id="Polygon 21_2" d="M0.286635 39.9373L1.39052 41.0022L0.280603 42.0609L0.286635 39.9373Z" fill="black" stroke="black"/>
<path id="Polygon 22" d="M9.27394 39.9373L10.3778 41.0022L9.26791 42.0609L9.27394 39.9373Z" fill="black" stroke="black"/>
<path id="Polygon 23" d="M18.2608 39.9373L19.3646 41.0022L18.2547 42.0609L18.2608 39.9373Z" fill="black" stroke="black"/>
<path id="Polygon 24" d="M27.2478 39.9373L28.3517 41.0022L27.2418 42.0609L27.2478 39.9373Z" fill="black" stroke="black"/>
<path id="Polygon 25" d="M36.2351 39.9373L37.339 41.0022L36.2291 42.0609L36.2351 39.9373Z" fill="black" stroke="black"/>
<path id="Polygon 26" d="M45.2222 39.9373L46.3261 41.0022L45.2162 42.0609L45.2222 39.9373Z" fill="black" stroke="black"/>
<path id="Polygon 21_3" d="M0.286635 47.6204L1.39052 48.6853L0.280603 49.744L0.286635 47.6204Z" fill="black" stroke="black"/>
<path id="Polygon 22_2" d="M9.27394 47.6204L10.3778 48.6853L9.26791 49.744L9.27394 47.6204Z" fill="black" stroke="black"/>
<path id="Polygon 23_2" d="M18.2608 47.6204L19.3646 48.6853L18.2547 49.744L18.2608 47.6204Z" fill="black" stroke="black"/>
<path id="Polygon 24_2" d="M27.2478 47.6204L28.3517 48.6853L27.2418 49.744L27.2478 47.6204Z" fill="black" stroke="black"/>
<path id="Polygon 25_2" d="M36.2351 47.6204L37.339 48.6853L36.2291 49.744L36.2351 47.6204Z" fill="black" stroke="black"/>
<path id="Polygon 21_4" d="M0.286635 55.3035L1.39052 56.3684L0.280603 57.4271L0.286635 55.3035Z" fill="black" stroke="black"/>
<path id="Polygon 22_3" d="M9.27394 55.3035L10.3778 56.3684L9.26791 57.4271L9.27394 55.3035Z" fill="black" stroke="black"/>
<path id="Polygon 23_3" d="M18.2608 55.3035L19.3646 56.3684L18.2547 57.4271L18.2608 55.3035Z" fill="black" stroke="black"/>
<path id="Polygon 24_3" d="M27.2478 55.3035L28.3517 56.3684L27.2418 57.4271L27.2478 55.3035Z" fill="black" stroke="black"/>
<path id="Polygon 21_5" d="M0.286635 62.9871L1.39052 64.052L0.280603 65.1107L0.286635 62.9871Z" fill="black" stroke="black"/>
<path id="Polygon 24_4" d="M9.27394 62.9871L10.3778 64.052L9.26791 65.1107L9.27394 62.9871Z" fill="black" stroke="black"/>
<path id="Polygon 25_3" d="M18.2608 62.9871L19.3646 64.052L18.2547 65.1107L18.2608 62.9871Z" fill="black" stroke="black"/>
<path id="Polygon 21_6" d="M0.286635 70.6702L1.39052 71.7351L0.280603 72.7938L0.286635 70.6702Z" fill="black" stroke="black"/>
<path id="Polygon 24_5" d="M9.27394 70.6702L10.3778 71.7351L9.26791 72.7938L9.27394 70.6702Z" fill="black" stroke="black"/>
<path id="Polygon 21_7" d="M0.286635 78.3533L1.39052 79.4183L0.280603 80.4769L0.286635 78.3533Z" fill="black" stroke="black"/>
</g>
</svg>
