<svg width="79" height="138" viewBox="0 0 79 138" fill="none" xmlns="http://www.w3.org/2000/svg">
<g id="Group 1410076179">
<path id="Polygon 15" d="M-0.173826 1.75913L2.51638 4.3545L-0.188525 6.93454L-0.173826 1.75913Z" fill="black" stroke="black"/>
<path id="Polygon 15_2" d="M-0.173826 14.6893L2.51638 17.2847L-0.188525 19.8647L-0.173826 14.6893Z" fill="black" stroke="black"/>
<path id="Polygon 16" d="M14.9507 14.6893L17.6409 17.2847L14.936 19.8647L14.9507 14.6893Z" fill="black" stroke="black"/>
<path id="Polygon 15_3" d="M-0.173826 27.6195L2.51638 30.2148L-0.188525 32.7949L-0.173826 27.6195Z" fill="black" stroke="black"/>
<path id="Polygon 16_2" d="M14.9507 27.6195L17.6409 30.2148L14.936 32.7949L14.9507 27.6195Z" fill="black" stroke="black"/>
<path id="Polygon 17" d="M30.0752 27.6195L32.7654 30.2148L30.0605 32.7949L30.0752 27.6195Z" fill="black" stroke="black"/>
<path id="Polygon 15_4" d="M-0.173826 40.5497L2.51638 43.145L-0.188525 45.7251L-0.173826 40.5497Z" fill="black" stroke="black"/>
<path id="Polygon 16_3" d="M14.9507 40.5497L17.6409 43.145L14.936 45.7251L14.9507 40.5497Z" fill="black" stroke="black"/>
<path id="Polygon 17_2" d="M30.0752 40.5497L32.7654 43.145L30.0605 45.7251L30.0752 40.5497Z" fill="black" stroke="black"/>
<path id="Polygon 18" d="M45.2002 40.5497L47.8904 43.145L45.1855 45.7251L45.2002 40.5497Z" fill="black" stroke="black"/>
<path id="Polygon 17_3" d="M-0.173826 53.4798L2.51638 56.0752L-0.188525 58.6552L-0.173826 53.4798Z" fill="black" stroke="black"/>
<path id="Polygon 18_2" d="M14.9507 53.4798L17.6409 56.0752L14.936 58.6552L14.9507 53.4798Z" fill="black" stroke="black"/>
<path id="Polygon 19" d="M30.0752 53.4798L32.7654 56.0752L30.0605 58.6552L30.0752 53.4798Z" fill="black" stroke="black"/>
<path id="Polygon 20" d="M45.2002 53.4798L47.8904 56.0752L45.1855 58.6552L45.2002 53.4798Z" fill="black" stroke="black"/>
<path id="Polygon 21" d="M60.3247 53.4798L63.0149 56.0752L60.31 58.6552L60.3247 53.4798Z" fill="black" stroke="black"/>
<path id="Polygon 21_2" d="M-0.173826 66.41L2.51638 69.0054L-0.188525 71.5854L-0.173826 66.41Z" fill="black" stroke="black"/>
<path id="Polygon 22" d="M14.9507 66.41L17.6409 69.0054L14.936 71.5854L14.9507 66.41Z" fill="black" stroke="black"/>
<path id="Polygon 23" d="M30.0752 66.41L32.7654 69.0054L30.0605 71.5854L30.0752 66.41Z" fill="black" stroke="black"/>
<path id="Polygon 24" d="M45.2002 66.41L47.8904 69.0054L45.1855 71.5854L45.2002 66.41Z" fill="black" stroke="black"/>
<path id="Polygon 25" d="M60.3247 66.41L63.0149 69.0054L60.31 71.5854L60.3247 66.41Z" fill="black" stroke="black"/>
<path id="Polygon 26" d="M75.4492 66.41L78.1394 69.0054L75.4345 71.5854L75.4492 66.41Z" fill="black" stroke="black"/>
<path id="Polygon 21_3" d="M-0.173826 79.3402L2.51638 81.9356L-0.188525 84.5156L-0.173826 79.3402Z" fill="black" stroke="black"/>
<path id="Polygon 22_2" d="M14.9507 79.3402L17.6409 81.9356L14.936 84.5156L14.9507 79.3402Z" fill="black" stroke="black"/>
<path id="Polygon 23_2" d="M30.0752 79.3402L32.7654 81.9356L30.0605 84.5156L30.0752 79.3402Z" fill="black" stroke="black"/>
<path id="Polygon 24_2" d="M45.2002 79.3402L47.8904 81.9356L45.1855 84.5156L45.2002 79.3402Z" fill="black" stroke="black"/>
<path id="Polygon 25_2" d="M60.3247 79.3402L63.0149 81.9356L60.31 84.5156L60.3247 79.3402Z" fill="black" stroke="black"/>
<path id="Polygon 21_4" d="M-0.173826 92.2704L2.51638 94.8657L-0.188525 97.4458L-0.173826 92.2704Z" fill="black" stroke="black"/>
<path id="Polygon 22_3" d="M14.9507 92.2704L17.6409 94.8657L14.936 97.4458L14.9507 92.2704Z" fill="black" stroke="black"/>
<path id="Polygon 23_3" d="M30.0752 92.2704L32.7654 94.8657L30.0605 97.4458L30.0752 92.2704Z" fill="black" stroke="black"/>
<path id="Polygon 24_3" d="M45.2002 92.2704L47.8904 94.8657L45.1855 97.4458L45.2002 92.2704Z" fill="black" stroke="black"/>
<path id="Polygon 21_5" d="M-0.173826 105.201L2.51638 107.796L-0.188525 110.376L-0.173826 105.201Z" fill="black" stroke="black"/>
<path id="Polygon 24_4" d="M14.9507 105.201L17.6409 107.796L14.936 110.376L14.9507 105.201Z" fill="black" stroke="black"/>
<path id="Polygon 25_3" d="M30.0752 105.201L32.7654 107.796L30.0605 110.376L30.0752 105.201Z" fill="black" stroke="black"/>
<path id="Polygon 21_6" d="M-0.173826 118.131L2.51638 120.726L-0.188525 123.306L-0.173826 118.131Z" fill="black" stroke="black"/>
<path id="Polygon 24_5" d="M14.9507 118.131L17.6409 120.726L14.936 123.306L14.9507 118.131Z" fill="black" stroke="black"/>
<path id="Polygon 21_7" d="M-0.173826 131.061L2.51638 133.656L-0.188525 136.236L-0.173826 131.061Z" fill="black" stroke="black"/>
</g>
</svg>
